<?xml version="1.0" standalone="no"?><!DOCTYPE svg PUBLIC "-//W3C//DTD SVG 1.1//EN" "http://www.w3.org/Graphics/SVG/1.1/DTD/svg11.dtd"><svg t="1530000582736" class="icon" style="" viewBox="0 0 1024 1024" version="1.1" xmlns="http://www.w3.org/2000/svg" p-id="15609" xmlns:xlink="http://www.w3.org/1999/xlink" width="70" height="70"><defs><style type="text/css"></style></defs><path d="M849.545224 820.509423c0 18.72855-15.182794 33.909297-33.909297 33.909297L201.592856 854.41872c-18.727527 0-33.908274-15.180747-33.908274-33.909297L167.684582 206.465329c0-18.72855 15.180747-33.909297 33.908274-33.909297l614.043071 0c18.726503 0 33.909297 15.180747 33.909297 33.909297L849.545224 820.509423z" fill="#2c2c2c" p-id="15610"></path><path d="M933.949566 63.565734c-1.016143 0-2.00875 0.086981-2.991124 0.213871-0.980327-0.12689-1.974981-0.213871-2.991124-0.213871l-179.436742 0c-12.847609 0-23.258727 10.413164-23.258727 23.258727s10.412141 23.258727 23.258727 23.258727l162.15924 0 0 156.180062c0 12.846586 10.413164 23.258727 23.258727 23.258727s23.258727-10.412141 23.258727-23.258727L957.207269 86.825484C957.207269 73.978898 946.795129 63.565734 933.949566 63.565734z" fill="#2c2c2c" p-id="15611"></path><path d="M955.214892 936.496064c0-1.01512-0.085958-2.00875-0.214894-2.990101 0.128937-0.982374 0.214894-1.974981 0.214894-2.991124L955.214892 751.078097c0-12.846586-10.413164-23.258727-23.258727-23.258727-12.847609 0-23.258727 10.413164-23.258727 23.258727l0 162.15924L752.518401 913.237337c-12.846586 0-23.258727 10.414187-23.258727 23.258727 0 12.846586 10.413164 23.258727 23.258727 23.258727l179.437765 0C944.801728 959.755814 955.214892 949.34265 955.214892 936.496064z" fill="#2c2c2c" p-id="15612"></path><path d="M87.934237 66.889433c1.016143 0 2.009773 0.086981 2.991124 0.213871 0.980327-0.12689 1.973958-0.213871 2.990101-0.213871l179.436742 0c12.846586 0 23.258727 10.412141 23.258727 23.258727 0 12.846586-10.412141 23.258727-23.258727 23.258727L111.193986 113.406886l0 156.180062c0 12.846586-10.412141 23.258727-23.258727 23.258727-12.846586 0-23.258727-10.412141-23.258727-23.258727L64.676533 90.149183C64.67551 77.302597 75.087651 66.889433 87.934237 66.889433z" fill="#2c2c2c" p-id="15613"></path><path d="M66.66891 939.821809c0-1.020236 0.084934-2.00875 0.213871-2.991124-0.127913-0.980327-0.213871-1.978051-0.213871-2.990101L66.66891 754.400772c0-12.845563 10.412141-23.258727 23.258727-23.258727 12.845563 0 23.258727 10.413164 23.258727 23.258727l0 162.158217 156.178015 0c12.846586 0 23.258727 10.413164 23.258727 23.26282 0 12.842493-10.413164 23.255657-23.258727 23.255657l-179.436742 0C77.082074 963.077465 66.66891 952.664302 66.66891 939.821809z" fill="#2c2c2c" p-id="15614"></path></svg>