<?xml version="1.0" standalone="no"?><!DOCTYPE svg PUBLIC "-//W3C//DTD SVG 1.1//EN" "http://www.w3.org/Graphics/SVG/1.1/DTD/svg11.dtd"><svg t="1530000447713" class="icon" style="" viewBox="0 0 1024 1024" version="1.1" xmlns="http://www.w3.org/2000/svg" p-id="14256" xmlns:xlink="http://www.w3.org/1999/xlink" width="70" height="70"><defs><style type="text/css"></style></defs><path d="M896 736H128c-35.3 0-64 28.7-64 64v160c0 35.3 28.7 64 64 64h768c35.3 0 64-28.7 64-64V800c0-35.3-28.7-64-64-64z m0 224H128V800h768v160zM896 0H128C92.7 0 64 28.7 64 64v160c0 35.3 28.7 64 64 64h768c35.3 0 64-28.7 64-64V64c0-35.3-28.7-64-64-64z m0 224H128V64h768v160zM896 368H128c-35.3 0-64 28.7-64 64v160c0 35.3 28.7 64 64 64h768c35.3 0 64-28.7 64-64V432c0-35.3-28.7-64-64-64z m0 224H128V432h768v160z" fill="#2c2c2c" p-id="14257"></path><path d="M768 144m-32 0a32 32 0 1 0 64 0 32 32 0 1 0-64 0Z" fill="#2c2c2c" p-id="14258"></path><path d="M768 512m-32 0a32 32 0 1 0 64 0 32 32 0 1 0-64 0Z" fill="#2c2c2c" p-id="14259"></path><path d="M768 880m-32 0a32 32 0 1 0 64 0 32 32 0 1 0-64 0Z" fill="#2c2c2c" p-id="14260"></path><path d="M640 144m-32 0a32 32 0 1 0 64 0 32 32 0 1 0-64 0Z" fill="#2c2c2c" p-id="14261"></path><path d="M640 512m-32 0a32 32 0 1 0 64 0 32 32 0 1 0-64 0Z" fill="#2c2c2c" p-id="14262"></path><path d="M640 880m-32 0a32 32 0 1 0 64 0 32 32 0 1 0-64 0Z" fill="#2c2c2c" p-id="14263"></path></svg>