<?xml version="1.0" standalone="no"?><!DOCTYPE svg PUBLIC "-//W3C//DTD SVG 1.1//EN" "http://www.w3.org/Graphics/SVG/1.1/DTD/svg11.dtd"><svg t="1529999776128" class="icon" style="" viewBox="0 0 1024 1024" version="1.1" xmlns="http://www.w3.org/2000/svg" p-id="9429" xmlns:xlink="http://www.w3.org/1999/xlink" width="70" height="70"><defs><style type="text/css"></style></defs><path d="M976 64H48A48 48 0 0 0 0 112v800a48 48 0 0 0 48 48h928a48 48 0 0 0 48-48V112a48 48 0 0 0-48-48zM384 112c26.51136 0 48 21.48864 48 48S410.51136 208 384 208s-48-21.48864-48-48 21.48864-48 48-48z m-144 0c26.51136 0 48 21.48864 48 48s-21.48864 48-48 48S192 186.51136 192 160s21.48864-48 48-48z m-144 0c26.51136 0 48 21.48864 48 48s-21.48864 48-48 48-48-21.48864-48-48 21.48864-48 48-48z m880 800H48V256h928v656z" fill="#1296db" p-id="9430"></path><path d="M429.57312 501.1712a17.93536 17.93536 0 0 0 0 25.36448l139.4944 139.4944a17.93536 17.93536 0 0 0 25.36448-25.36448L454.93248 501.1712a17.93024 17.93024 0 0 0-25.35936 0z m-63.40608-12.68224c-13.98272-13.98272-13.98272-36.74112 0-50.72384s36.74112-13.98272 50.72384 0l107.32544 107.32544c6.38464-23.93088 0.21504-50.51392-18.56-69.28384L442.25536 412.40064c-28.01664-28.01664-73.43616-28.01664-101.44768 0s-28.01664 73.43616 0 101.44768l63.40608 63.40608c18.76992 18.76992 45.35296 24.94464 69.28384 18.56L366.16704 488.48896z m317.0304 164.85376l-63.40608-63.40608c-18.76992-18.76992-45.35296-24.94464-69.28384-18.56l107.32544 107.32544c13.98272 13.98272 13.98272 36.74112 0 50.72384s-36.74112 13.98272-50.72384 0l-107.32544-107.32544c-6.38464 23.93088-0.21504 50.51392 18.56 69.28384l63.40608 63.40608c28.01664 28.01664 73.43616 28.01664 101.44768 0 28.01152-28.01152 28.01152-73.43104 0-101.44768z" fill="#1296db" p-id="9431"></path></svg>