<?xml version="1.0" standalone="no"?><!DOCTYPE svg PUBLIC "-//W3C//DTD SVG 1.1//EN" "http://www.w3.org/Graphics/SVG/1.1/DTD/svg11.dtd"><svg t="1529998263910" class="icon" style="" viewBox="0 0 1024 1024" version="1.1" xmlns="http://www.w3.org/2000/svg" p-id="3988" xmlns:xlink="http://www.w3.org/1999/xlink" width="70" height="70"><defs><style type="text/css"></style></defs><path d="M841.216 65.024c15.36 0 29.184 6.144 40.448 16.896 10.752 10.752 16.896 25.088 16.896 40.448v780.288c0 15.36-6.144 29.184-16.896 40.448-10.752 10.752-25.088 16.896-40.448 16.896H182.784c-15.36 0-29.184-6.144-40.448-16.896-10.752-10.752-16.896-25.088-16.896-40.448V121.856c0-15.36 6.144-29.184 16.896-40.448 10.752-10.752 25.088-16.896 40.448-16.896h658.432v0.512z m0-39.424H182.784c-52.736 0-96.256 43.52-96.256 96.256v780.288c0 52.736 43.52 96.256 96.256 96.256h658.944c52.736 0 96.256-43.52 96.256-96.256V121.856c0-52.736-43.52-96.256-96.768-96.256" fill="#1296db" p-id="3989"></path><path d="M246.784 257.536c0 23.04 18.944 41.984 41.984 41.984 23.04 0 41.984-18.944 41.984-41.984s-18.944-41.984-41.984-41.984c-23.552 0.512-41.984 18.944-41.984 41.984z m0 254.464c0 23.04 18.944 41.984 41.984 41.984 23.04 0 41.984-18.944 41.984-41.984 0-23.04-18.944-41.984-41.984-41.984-23.552 0-41.984 18.944-41.984 41.984z m0 254.464c0 23.04 18.944 41.984 41.984 41.984 23.04 0 41.984-18.944 41.984-41.984 0-23.04-18.944-41.984-41.984-41.984-23.552 0-41.984 18.944-41.984 41.984z m530.432-490.496H401.408c-10.752 0-19.456-8.704-19.456-19.456 0-10.752 8.704-19.456 19.456-19.456h375.808c10.752 0 19.456 8.704 19.456 19.456 0.512 10.752-8.192 19.456-19.456 19.456z m0 252.416H401.408c-10.752 0-19.456-8.704-19.456-19.456 0-10.752 8.704-19.456 19.456-19.456h375.808c10.752 0 19.456 8.704 19.456 19.456 0.512 10.752-8.192 19.456-19.456 19.456z m0 259.584H401.408c-10.752 0-19.456-8.704-19.456-19.456 0-10.752 8.704-19.456 19.456-19.456h375.808c10.752 0 19.456 8.704 19.456 19.456 0.512 10.24-8.192 19.456-19.456 19.456z" fill="#1296db" p-id="3990"></path></svg>