<?xml version="1.0" standalone="no"?><!DOCTYPE svg PUBLIC "-//W3C//DTD SVG 1.1//EN" "http://www.w3.org/Graphics/SVG/1.1/DTD/svg11.dtd"><svg t="1530000774575" class="icon" style="" viewBox="0 0 1024 1024" version="1.1" xmlns="http://www.w3.org/2000/svg" p-id="19485" xmlns:xlink="http://www.w3.org/1999/xlink" width="70" height="70"><defs><style type="text/css"></style></defs><path d="M262.812575 482.048176a221.702225 221.702225 0 1 1 221.702225 221.702225 221.702225 221.702225 0 0 1-221.702225-221.702225z m385.262675 202.497821l117.458133 117.458132 34.062858-34.121587-117.164487-117.458133a260.052306 260.052306 0 1 0-34.532691 33.710484z" fill="#1296db" p-id="19486"></path><path d="M512.000003 0a512 512 0 1 0 512 512A512 512 0 0 0 512.000003 0z m0 977.42785a465.42785 465.42785 0 1 1 465.427851-465.42785 465.42785 465.42785 0 0 1-465.427851 465.369121z" fill="#1296db" p-id="19487"></path></svg>