<?xml version="1.0" standalone="no"?><!DOCTYPE svg PUBLIC "-//W3C//DTD SVG 1.1//EN" "http://www.w3.org/Graphics/SVG/1.1/DTD/svg11.dtd"><svg t="1530000731520" class="icon" style="" viewBox="0 0 1024 1024" version="1.1" xmlns="http://www.w3.org/2000/svg" p-id="17970" xmlns:xlink="http://www.w3.org/1999/xlink" width="70" height="70"><defs><style type="text/css"></style></defs><path d="M610.389 695.024c-2.104 0-4.243-0.371-6.329-1.155l-178.726-67.165c-9.306-3.497-14.015-13.876-10.518-23.182 3.498-9.307 13.878-14.015 23.182-10.518l178.726 67.165c9.306 3.497 14.015 13.876 10.518 23.182-2.714 7.22-9.57 11.673-16.853 11.673z" fill="#2c2c2c" p-id="17971"></path><path d="M303.058 737.074a17.96 17.96 0 0 1-13.729-6.349c-6.435-7.578-5.509-18.937 2.069-25.372l128.617-109.22c7.579-6.435 18.937-5.507 25.372 2.069 6.435 7.578 5.509 18.937-2.069 25.372l-128.617 109.22a17.927 17.927 0 0 1-11.643 4.28zM610.385 695.02c-4.212 0-8.44-1.469-11.856-4.463-7.477-6.552-8.227-17.924-1.675-25.4L707.415 538.99c6.552-7.477 17.926-8.225 25.4-1.674 7.477 6.552 8.227 17.924 1.675 25.4L623.929 688.883a17.959 17.959 0 0 1-13.544 6.137z" fill="#2c2c2c" p-id="17972"></path><path d="M274.707 690.684c-15.628 15.626-15.589 40.96 0 56.568 15.628 15.606 40.945 15.626 56.572 0 15.628-15.629 15.628-40.961 0-56.568-15.588-15.626-40.944-15.626-56.572 0zM403.373 581.731c-15.628 15.627-15.589 40.979 0 56.564 15.628 15.623 40.945 15.623 56.573 0 15.628-15.625 15.628-40.938 0-56.564-15.59-15.624-40.946-15.624-56.573 0zM582.099 648.626c-15.627 15.625-15.59 40.977 0 56.563 15.627 15.626 40.945 15.626 56.571 0 15.63-15.625 15.63-40.938 0-56.563-15.587-15.624-40.944-15.624-56.571 0z" fill="#2c2c2c" p-id="17973"></path><path d="M692.706 522.683c-15.627 15.626-15.588 40.978 0 56.563 15.629 15.624 40.944 15.624 56.574 0 15.627-15.626 15.627-40.938 0-56.563-15.59-15.625-40.945-15.625-56.574 0z" fill="#2c2c2c" p-id="17974"></path><path d="M263 260h498v36H263z" fill="#2c2c2c" p-id="17975"></path><path d="M263 416h498v36H263z" fill="#2c2c2c" p-id="17976"></path><path d="M347.809 572H263v36h52.706z" fill="#2c2c2c" p-id="17977"></path><path d="M640.105 764H761v-36h-74.13a92.185 92.185 0 0 1-11.437 13.964c-10.113 10.113-22.174 17.559-35.328 22.036z" fill="#2c2c2c" p-id="17978"></path><path d="M848 117c2.206 0 4 1.794 4 4v782c0 2.206-1.794 4-4 4H176c-2.206 0-4-1.794-4-4V121c0-2.206 1.794-4 4-4h672m0-36H176c-22.092 0-40 17.908-40 40v782c0 22.092 17.908 40 40 40h672c22.092 0 40-17.908 40-40V121c0-22.092-17.908-40-40-40z" fill="#2c2c2c" p-id="17979"></path><path d="M749.28 522.683c-15.59-15.625-40.945-15.625-56.574 0-11.675 11.674-14.602 28.774-8.838 43.178l-63.394 72.341c-12.809-3.321-26.949-0.197-37.27 9.373l-111.796-42.014a39.828 39.828 0 0 0-11.463-23.829c-15.589-15.624-40.945-15.624-56.573 0-10.186 10.186-13.71 24.5-10.618 37.552l-74.057 62.888c-14.569-6.211-32.096-3.381-43.991 8.513-15.628 15.626-15.589 40.96 0 56.568 15.628 15.606 40.945 15.626 56.572 0 10.19-10.191 13.731-24.507 10.631-37.563l74.053-62.885c14.15 6.032 31.055 3.534 42.915-7.493l111.765 42.001c0.961 8.729 4.776 17.2 11.455 23.877 15.627 15.626 40.945 15.626 56.571 0 11.69-11.687 14.634-28.792 8.837-43.211l63.372-72.317c13.281 3.459 27.989-0.006 38.401-10.414 15.629-15.628 15.629-40.939 0.002-56.565z" fill="#2c2c2c" p-id="17980"></path></svg>