<?xml version="1.0" encoding="utf-8"?>
<!-- Generator: Adobe Illustrator 20.1.0, SVG Export Plug-In . SVG Version: 6.00 Build 0)  -->
<svg version="1.1" id="图层_1" xmlns="http://www.w3.org/2000/svg" xmlns:xlink="http://www.w3.org/1999/xlink" x="0px" y="0px"
	 viewBox="0 0 16 16" style="enable-background:new 0 0 16 16;" xml:space="preserve">
<style type="text/css">
	.st0{fill:#020202;}
</style>
<path class="st0" d="M8,2.2c2.1,0,3.8,1.7,3.8,3.8l0,0.1l0,0l0,0.8l0.8,0.2c1.4,0.3,2.4,1.5,2.4,3c0,1.7-1.3,3.1-3,3.1h-0.8H4.3
	C2.5,13.2,1,11.7,1,9.8C1,8.3,2,7,3.5,6.6l0.7-0.2l0.1-0.7C4.4,3.7,6,2.2,8,2.2 M8,1.2c-2.5,0-4.6,2-4.8,4.5C1.4,6.1,0,7.8,0,9.8
	c0,2.4,1.9,4.3,4.3,4.3h6.9c0,0,0.5,0,0.8,0c2.2,0,4-1.8,4-4.1c0-2-1.4-3.6-3.2-4c0,0,0-0.1,0-0.1C12.8,3.3,10.7,1.2,8,1.2L8,1.2z"
	/>
</svg>
