<?xml version="1.0" standalone="no"?><!DOCTYPE svg PUBLIC "-//W3C//DTD SVG 1.1//EN" "http://www.w3.org/Graphics/SVG/1.1/DTD/svg11.dtd"><svg t="1530000860654" class="icon" style="" viewBox="0 0 1024 1024" version="1.1" xmlns="http://www.w3.org/2000/svg" p-id="21423" xmlns:xlink="http://www.w3.org/1999/xlink" width="70" height="70"><defs><style type="text/css"></style></defs><path d="M768.448541 0H126.371601A126.293593 126.293593 0 0 0 0 126.371601v642.07694a126.293593 126.293593 0 0 0 126.371601 126.371601l16.849546-287.534395c-6.630609-335.430791-9.750895-455.873848 78.007161-462.504457l673.279805-18.409689A126.605622 126.605622 0 0 0 768.448541 0m-530.448693 171.615754c-92.126457 1.014093-88.538128 235.347604-84.403748 415.466138L140.412889 830.386227a76.681039 76.681039 0 0 1-76.447017-76.759046V140.412889A76.681039 76.681039 0 0 1 140.412889 63.965872h613.682335a76.681039 76.681039 0 0 1 76.759046 76.447017z" fill="#2c2c2c" p-id="21424"></path><path d="M319.829359 543.319875h511.102918v63.965872H319.829359zM543.319875 319.829359h63.965872v511.102918h-63.965872z m352.982403-191.897615H254.303344a126.293593 126.293593 0 0 0-126.3716 126.3716v642.076941a126.293593 126.293593 0 0 0 126.3716 126.3716h642.076941a126.293593 126.293593 0 0 0 126.3716-126.3716V254.303344a126.683629 126.683629 0 0 0-126.3716-126.3716m62.405729 754.095223a76.603032 76.603032 0 0 1-76.759047 76.759047H268.578655a76.603032 76.603032 0 0 1-76.759047-76.759047V268.578655a76.603032 76.603032 0 0 1 76.759047-76.759047h613.448312a76.603032 76.603032 0 0 1 76.759047 76.759047z" fill="#2c2c2c" p-id="21425"></path></svg>