<?xml version="1.0" standalone="no"?><!DOCTYPE svg PUBLIC "-//W3C//DTD SVG 1.1//EN" "http://www.w3.org/Graphics/SVG/1.1/DTD/svg11.dtd"><svg t="1530000649252" class="icon" style="" viewBox="0 0 1024 1024" version="1.1" xmlns="http://www.w3.org/2000/svg" p-id="16967" xmlns:xlink="http://www.w3.org/1999/xlink" width="70" height="70"><defs><style type="text/css"></style></defs><path d="M775.754 922.56H248.246c-16.177 0-29.313-13.135-29.313-29.312s13.136-29.313 29.313-29.313h527.508c16.177 0 29.313 13.136 29.313 29.313s-13.136 29.313-29.313 29.313z m0-117.25H248.246c-80.762 0-146.564-61.301-146.564-136.712V238.76c0-75.41 65.802-136.712 146.564-136.712h527.508c80.884 0 146.564 61.302 146.564 136.712V668.6c-0.122 75.41-65.802 136.71-146.564 136.71zM248.246 160.673c-48.53 0-87.938 35.03-87.938 78.086v429.84c0 43.056 39.408 78.085 87.938 78.085h527.508c48.53 0 87.938-35.029 87.938-78.086V238.76c0-43.057-39.408-78.086-87.938-78.086H248.246z m0 0" fill="#2c2c2c" p-id="16968"></path><path d="M599.877 570.93c-7.54 0-14.96-2.92-20.798-8.515L403.324 386.54c-11.433-11.433-11.433-30.043 0-41.476s30.042-11.433 41.476 0L620.676 520.94c11.433 11.433 11.433 30.042 0 41.475-5.838 5.595-13.258 8.515-20.799 8.515z m0 0" fill="#2c2c2c" p-id="16969"></path><path d="M424 570.93c-16.176 0-29.312-13.136-29.312-29.313V336.549h205.19c16.176 0 29.312 13.136 29.312 29.313s-13.136 29.313-29.313 29.313H453.314v146.563c0 16.177-13.136 29.192-29.313 29.192z m0 0" fill="#2c2c2c" p-id="16970"></path></svg>