<?xml version="1.0" standalone="no"?><!DOCTYPE svg PUBLIC "-//W3C//DTD SVG 1.1//EN" "http://www.w3.org/Graphics/SVG/1.1/DTD/svg11.dtd"><svg t="1530000823800" class="icon" style="" viewBox="0 0 1024 1024" version="1.1" xmlns="http://www.w3.org/2000/svg" p-id="20499" xmlns:xlink="http://www.w3.org/1999/xlink" width="70" height="70"><defs><style type="text/css"></style></defs><path d="M512 779.264c-150.016 0-271.872-121.344-271.872-270.848S361.984 237.568 512 237.568s271.872 121.344 271.872 270.848-121.856 270.848-271.872 270.848z m0-489.984c-121.344 0-220.16 98.304-220.16 219.136 0 120.832 98.816 219.136 220.16 219.136s220.16-98.304 220.16-219.136c0-120.832-98.816-219.136-220.16-219.136z" fill="#2c2c2c" p-id="20500"></path><path d="M829.952 773.632c-76.8 95.232-192.512 147.456-324.096 145.408-224.768-2.048-406.016-178.688-412.672-400.896-0.512-10.24-6.656-18.944-15.872-23.04-9.216-4.096-19.968-2.048-27.648 5.12L0 550.4v72.192c0.512-0.512 1.024-0.512 1.536-1.024l45.056-46.592c33.28 223.744 224.768 393.728 458.752 396.288h5.632c145.92 0 273.408-58.368 358.912-164.864 8.704-11.264 7.168-27.136-4.096-36.352-10.752-9.216-26.624-7.168-35.84 3.584zM193.536 253.44c76.8-95.232 192.512-147.456 324.096-145.408 224.768 2.048 406.016 178.176 412.672 400.896 0.512 10.24 6.656 18.944 15.872 23.04 9.216 4.096 19.968 2.048 27.648-5.12l50.176-50.176v-71.68c-0.512 0.512-1.024 0.512-1.536 1.024l-45.056 46.592C944.128 228.864 752.64 58.88 518.656 56.32h-5.632C366.592 56.32 239.616 114.688 153.6 221.184c-8.704 11.264-7.168 27.136 4.096 36.352s27.136 7.168 35.84-4.096z" fill="#2c2c2c" p-id="20501"></path></svg>