<?xml version="1.0" standalone="no"?><!DOCTYPE svg PUBLIC "-//W3C//DTD SVG 1.1//EN" "http://www.w3.org/Graphics/SVG/1.1/DTD/svg11.dtd"><svg t="1530000503239" class="icon" style="" viewBox="0 0 1024 1024" version="1.1" xmlns="http://www.w3.org/2000/svg" p-id="15258" xmlns:xlink="http://www.w3.org/1999/xlink" width="70" height="70"><defs><style type="text/css"></style></defs><path d="M512 0C229.696 0 0 229.696 0 512s229.696 512 512 512 512-229.696 512-512-229.696-512-512-512z m0 960c-247.04 0-448-200.96-448-448s200.96-448 448-448 448 200.96 448 448-200.96 448-448 448z" fill="#2c2c2c" p-id="15259"></path><path d="M512 624a32 32 0 0 0 32-32v-384a32 32 0 1 0-64 0v384a32 32 0 0 0 32 32z" fill="#2c2c2c" p-id="15260"></path><path d="M512 752m-64 0a64 64 0 1 0 128 0 64 64 0 1 0-128 0Z" fill="#2c2c2c" p-id="15261"></path></svg>