<?xml version="1.0" encoding="utf-8"?>
<!-- Generator: Adobe Illustrator 20.1.0, SVG Export Plug-In . SVG Version: 6.00 Build 0)  -->
<svg version="1.1" id="图层_1" xmlns="http://www.w3.org/2000/svg" xmlns:xlink="http://www.w3.org/1999/xlink" x="0px" y="0px"
	 viewBox="0 0 16 16" style="enable-background:new 0 0 16 16;" xml:space="preserve">
<style type="text/css">
	.st0{fill:#020202;}
</style>
<g>
	<path class="st0" d="M8,1c3.9,0,7,3.1,7,7s-3.1,7-7,7s-7-3.1-7-7S4.1,1,8,1 M8,0C3.6,0,0,3.6,0,8s3.6,8,8,8s8-3.6,8-8S12.4,0,8,0
		L8,0z"/>
</g>
<g>
	<path class="st0" d="M8,4c3.8,0,7,1.8,7,4s-3.2,4-7,4s-7-1.8-7-4S4.2,4,8,4 M8,3C3.6,3,0,5.2,0,8s3.6,5,8,5s8-2.2,8-5S12.4,3,8,3
		L8,3z"/>
</g>
<g>
	<polygon class="st0" points="16,7 0,7 0,8 16,8 16,7 	"/>
</g>
<g>
	<path class="st0" d="M8,1c2.2,0,4,3.2,4,7s-1.8,7-4,7s-4-3.2-4-7S5.8,1,8,1 M8,0C5.2,0,3,3.6,3,8s2.2,8,5,8s5-3.6,5-8S10.8,0,8,0
		L8,0z"/>
</g>
</svg>
