<?xml version="1.0" standalone="no"?>
<!DOCTYPE svg PUBLIC "-//W3C//DTD SVG 1.1//EN" "http://www.w3.org/Graphics/SVG/1.1/DTD/svg11.dtd">
<svg viewBox="0 0 1024 1024" version="1.1" xmlns="http://www.w3.org/2000/svg" xmlns:xlink="http://www.w3.org/1999/xlink">
<path d="M704 192c-70.4 0-140.8 25.6-192 64-51.2-38.4-121.6-64-192-64-179.2 0-320 140.8-320 320s140.8 320 320 320c70.4 0 140.8-25.6 192-64 51.2 38.4 121.6 64 192 64 179.2 0 320-140.8 320-320s-140.8-320-320-320z m-192 486.4C473.6 633.6 448 576 448 512h128c0 64-25.6 121.6-64 166.4zM454.4 448c12.8-38.4 32-76.8 57.6-102.4 25.6 32 44.8 64 57.6 102.4H454.4zM64 512c0-140.8 115.2-256 256-256 51.2 0 102.4 19.2 147.2 44.8-38.4 38.4-64 83.2-76.8 147.2H256v64h128c0 64 32 153.6 83.2 211.2-44.8 25.6-96 44.8-147.2 44.8-140.8 0-256-115.2-256-256z m640 256c-51.2 0-102.4-19.2-147.2-44.8C608 665.6 640 576 640 512h128V448H633.6c-12.8-64-38.4-108.8-76.8-147.2 44.8-25.6 96-44.8 147.2-44.8 140.8 0 256 115.2 256 256s-115.2 256-256 256z" p-id="5950"></path>
</svg>